<?xml version="1.0" encoding="UTF-8" standalone="no"?>
<!-- Created with Inkscape (http://www.inkscape.org/) -->

<svg
   xmlns:dc="http://purl.org/dc/elements/1.1/"
   xmlns:cc="http://creativecommons.org/ns#"
   xmlns:rdf="http://www.w3.org/1999/02/22-rdf-syntax-ns#"
   xmlns:svg="http://www.w3.org/2000/svg"
   xmlns="http://www.w3.org/2000/svg"
   xmlns:sodipodi="http://sodipodi.sourceforge.net/DTD/sodipodi-0.dtd"
   xmlns:inkscape="http://www.inkscape.org/namespaces/inkscape"
   width="744.09448819"
   height="1052.3622047"
   id="svg2"
   version="1.1"
   inkscape:version="0.48.2 r9819"
   inkscape:export-filename="/Users/ilyapozdneev/Documents/Dev/ruby/Asteroid Destroyer/icon.png"
   inkscape:export-xdpi="136.1295"
   inkscape:export-ydpi="136.1295"
   sodipodi:docname="New document 1">
  <defs
     id="defs4" />
  <sodipodi:namedview
     id="base"
     pagecolor="#ffffff"
     bordercolor="#666666"
     borderopacity="1.0"
     inkscape:pageopacity="0.0"
     inkscape:pageshadow="2"
     inkscape:zoom="2.8"
     inkscape:cx="241.38116"
     inkscape:cy="582.68426"
     inkscape:document-units="px"
     inkscape:current-layer="layer1"
     showgrid="false"
     inkscape:window-width="1440"
     inkscape:window-height="793"
     inkscape:window-x="0"
     inkscape:window-y="0"
     inkscape:window-maximized="1" />
  <metadata
     id="metadata7">
    <rdf:RDF>
      <cc:Work
         rdf:about="">
        <dc:format>image/svg+xml</dc:format>
        <dc:type
           rdf:resource="http://purl.org/dc/dcmitype/StillImage" />
        <dc:title></dc:title>
      </cc:Work>
    </rdf:RDF>
  </metadata>
  <g
     inkscape:groupmode="layer"
     id="layer4"
     inkscape:label="asteroid"
     style="display:inline"
     sodipodi:insensitive="true">
    <path
       style="fill:#808080;fill-opacity:1;fill-rule:nonzero;stroke:none;display:inline"
       d="m 160.1527,454.09933 c 0,18.54991 18.09042,33.58758 40.4061,33.58758 22.31567,0 52.55609,-23.47013 44.44671,-40.15357 -7.2537,-14.92305 -24.28808,-30.48874 -40.4061,-33.58757 -21.91434,-4.21322 -44.44671,21.60366 -44.44671,40.15356 z"
       id="path3194"
       inkscape:connector-curvature="0"
       sodipodi:nodetypes="sssss" />
    <path
       sodipodi:nodetypes="sssss"
       inkscape:connector-curvature="0"
       id="path3199"
       d="m 198.53734,431.82784 c -1.20268,3.93704 5.78574,7.37174 10.53571,7.37174 4.74997,0 9.25162,-5.11728 7.5255,-8.83483 -1.54397,-3.32529 -5.14135,-6.97237 -8.60057,-7.48429 -4.3041,-0.63696 -8.45518,5.65598 -9.46064,8.94738 z"
       style="fill:#ffffff;fill-opacity:1;fill-rule:nonzero;stroke:none;display:inline" />
    <path
       style="fill:#ffffff;fill-opacity:1;fill-rule:nonzero;stroke:none;display:inline"
       d="m 196.92061,453.32072 c -0.65363,6.78041 8.03923,2.48434 13.69365,2.48434 5.65443,0 9.34954,-3.49953 7.29476,-7.7078 -1.83797,-3.76423 -4.32866,-1.01303 -8.44656,-1.59252 -5.12365,-0.72103 -12.16648,2.92213 -12.54185,6.81598 z"
       id="path3201"
       inkscape:connector-curvature="0"
       sodipodi:nodetypes="sssss" />
    <path
       style="fill:#ffffff;fill-opacity:1;fill-rule:nonzero;stroke:none;display:inline"
       d="m 206.78673,469.17039 c -0.78235,2.28518 1.94534,3.36424 5.03517,3.36424 3.08983,0 5.66847,-4.86466 4.54564,-7.02244 -1.00434,-1.93011 -4.25356,-1.43398 -6.50376,-1.73112 -2.7998,-0.36971 -2.42301,3.47889 -3.07705,5.38932 z"
       id="path3203"
       inkscape:connector-curvature="0"
       sodipodi:nodetypes="sssss" />
    <path
       sodipodi:nodetypes="sssss"
       inkscape:connector-curvature="0"
       id="path3205"
       d="m 226.58733,452.98368 c -1.3749,5.04627 3.41878,7.42912 8.84891,7.42912 5.43013,0 2.46488,-3.67395 0.49161,-8.4389 -1.76506,-4.26217 0.0217,-10.23508 -3.93285,-10.89124 -4.92041,-0.81641 -4.25824,7.68229 -5.40767,11.90102 z"
       style="fill:#ffffff;fill-opacity:1;fill-rule:nonzero;stroke:none;display:inline" />
    <path
       sodipodi:nodetypes="sssss"
       inkscape:connector-curvature="0"
       id="path3207"
       d="m 182.88114,469.08941 c 0,3.01853 2.50862,5.46553 5.60316,5.46553 3.09454,0 7.28802,-3.81917 6.16348,-6.53398 -1.00588,-2.42835 -3.36805,-4.96127 -5.60316,-5.46553 -3.03889,-0.68559 -6.16348,3.51545 -6.16348,6.53398 z"
       style="fill:#ffffff;fill-opacity:1;fill-rule:nonzero;stroke:none;display:inline" />
    <path
       sodipodi:nodetypes="sssss"
       inkscape:connector-curvature="0"
       id="path3209"
       d="m 184.54918,445.71372 c -4.61579,0.51606 -1.69123,-6.34721 -1.69123,-10.81154 0,-4.46434 2.38232,-7.38174 5.24711,-5.75943 2.56251,1.45113 0.68962,3.4176 1.08411,6.66881 0.49084,4.04527 -1.98925,9.6058 -4.63999,9.90216 z"
       style="fill:#ffffff;fill-opacity:1;fill-rule:nonzero;stroke:none;display:inline" />
    <path
       style="fill:#ffffff;fill-opacity:1;fill-rule:nonzero;stroke:none;display:inline"
       d="m 178.88653,455.18423 c 1.86787,2.98295 -0.82581,3.95137 -4.39312,3.51228 -3.56729,-0.43908 -2.32159,-2.29011 -1.93613,-4.84223 0.34481,-2.28281 -1.97077,-5.82641 0.50172,-5.88004 3.07638,-0.0667 4.26597,4.71621 5.82753,7.20999 z"
       id="path3211"
       inkscape:connector-curvature="0"
       sodipodi:nodetypes="sssss"
       inkscape:transform-center-y="4.4086632" />
    <path
       style="fill:#000000;fill-opacity:1;fill-rule:nonzero;stroke:none;display:inline"
       d="m 196.51703,431.32276 c -1.20268,3.93704 5.78574,7.37174 10.53571,7.37174 4.74997,0 9.25162,-5.11728 7.5255,-8.83483 -1.54397,-3.32529 -5.14135,-6.97237 -8.60057,-7.48429 -4.3041,-0.63696 -8.45518,5.65598 -9.46064,8.94738 z"
       id="path3215"
       inkscape:connector-curvature="0"
       sodipodi:nodetypes="sssss" />
    <path
       sodipodi:nodetypes="sssss"
       inkscape:connector-curvature="0"
       id="path3217"
       d="m 194.9003,452.81564 c -0.65363,6.78041 8.03923,2.48434 13.69365,2.48434 5.65443,0 9.34954,-3.49953 7.29476,-7.7078 -1.83797,-3.76423 -4.32866,-1.01303 -8.44656,-1.59252 -5.12365,-0.72103 -12.16648,2.92213 -12.54185,6.81598 z"
       style="fill:#000000;fill-opacity:1;fill-rule:nonzero;stroke:none;display:inline" />
    <path
       sodipodi:nodetypes="sssss"
       inkscape:connector-curvature="0"
       id="path3219"
       d="m 204.76642,468.66531 c -0.78235,2.28518 1.94534,3.36424 5.03517,3.36424 3.08983,0 5.66847,-4.86466 4.54564,-7.02244 -1.00434,-1.93011 -4.25356,-1.43398 -6.50376,-1.73112 -2.7998,-0.36971 -2.42301,3.47889 -3.07705,5.38932 z"
       style="fill:#000000;fill-opacity:1;fill-rule:nonzero;stroke:none;display:inline" />
    <path
       style="fill:#000000;fill-opacity:1;fill-rule:nonzero;stroke:none;display:inline"
       d="m 224.56702,452.4786 c -1.3749,5.04627 3.41878,7.42912 8.84891,7.42912 5.43013,0 2.46488,-3.67395 0.49161,-8.4389 -1.76506,-4.26217 0.0217,-10.23508 -3.93285,-10.89124 -4.92041,-0.81641 -4.25824,7.68229 -5.40767,11.90102 z"
       id="path3221"
       inkscape:connector-curvature="0"
       sodipodi:nodetypes="sssss" />
    <path
       style="fill:#000000;fill-opacity:1;fill-rule:nonzero;stroke:none;display:inline"
       d="m 180.86083,468.58433 c 0,3.01853 2.50862,5.46553 5.60316,5.46553 3.09454,0 7.28802,-3.81917 6.16348,-6.53398 -1.00588,-2.42835 -3.36805,-4.96127 -5.60316,-5.46553 -3.03889,-0.68559 -6.16348,3.51545 -6.16348,6.53398 z"
       id="path3223"
       inkscape:connector-curvature="0"
       sodipodi:nodetypes="sssss" />
    <path
       style="fill:#000000;fill-opacity:1;fill-rule:nonzero;stroke:none;display:inline"
       d="m 182.52887,445.20864 c -4.61579,0.51606 -1.69123,-6.34721 -1.69123,-10.81154 0,-4.46434 2.38232,-7.38174 5.24711,-5.75943 2.56251,1.45113 0.68962,3.4176 1.08411,6.66881 0.49084,4.04527 -1.98925,9.6058 -4.63999,9.90216 z"
       id="path3225"
       inkscape:connector-curvature="0"
       sodipodi:nodetypes="sssss" />
    <path
       inkscape:transform-center-y="4.4086632"
       sodipodi:nodetypes="sssss"
       inkscape:connector-curvature="0"
       id="path3227"
       d="m 176.86622,454.67915 c 1.86787,2.98295 -0.82581,3.95137 -4.39312,3.51228 -3.56729,-0.43908 -2.32159,-2.29011 -1.93613,-4.84223 0.34481,-2.28281 -1.97077,-5.82641 0.50172,-5.88004 3.07638,-0.0667 4.26597,4.71621 5.82753,7.20999 z"
       style="fill:#000000;fill-opacity:1;fill-rule:nonzero;stroke:none;display:inline" />
  </g>
  <g
     inkscape:label="ship"
     inkscape:groupmode="layer"
     id="layer1"
     style="display:inline"
     sodipodi:insensitive="true">
    <path
       style="fill:#aa0000;fill-opacity:1;fill-rule:nonzero;stroke:#000000;stroke-width:0.59092349;stroke-opacity:1;display:inline"
       d="m 180.6775,406.51282 c -3.43254,0.0514 -6.82606,7.0299 -10.48212,20.96119 l -22.75432,0 c 3.50391,10.64164 13.7741,19.8805 15.3015,29.77759 l 6.38567,0 0,14.02697 -4.16531,19.27717 20.58558,0 10.86079,0 -4.0104,-18.56393 0.10327,0 0,-14.74021 6.12748,0 c 1.5274,-9.89709 11.79759,-19.13595 15.30149,-29.77759 l -22.39284,0 c -3.86547,-13.98686 -7.38656,-21.01314 -10.86079,-20.96119 z"
       id="rect3229"
       inkscape:connector-curvature="0" />
    <path
       inkscape:connector-curvature="0"
       id="path3254"
       d="m 180.6785,409.763 c -3.03074,0.047 -6.02702,6.43481 -9.25513,19.1868 l -20.09079,0 c 3.09374,9.74081 12.16176,18.19757 13.51037,27.25686 l 5.63819,0 0,12.83956 -3.67774,17.64535 18.17593,0 9.58948,0 -3.54096,-16.99249 0.0911,0 0,-13.49242 5.41022,0 c 1.34862,-9.05929 10.41663,-17.51605 13.51038,-27.25686 l -19.77165,0 c -3.41299,-12.80287 -6.52192,-19.23437 -9.58948,-19.1868 z"
       style="fill:#d40000;stroke:#ff0019;stroke-width:0.05318311;stroke-miterlimit:4;stroke-opacity:1;stroke-dasharray:none;display:inline" />
    <path
       style="fill:#d45500;stroke:#000000;stroke-width:0.50837392;stroke-miterlimit:4;stroke-opacity:0.12019228;stroke-dasharray:12.20097324, 0.50837389;stroke-dashoffset:0;display:inline"
       d="m 180.67991,412.51375 c -2.47115,0.0435 -4.91422,5.9532 -7.54629,17.75077 l -16.38128,0 c 2.52253,9.01176 9.91625,16.83558 11.01586,25.21683 l 4.59716,0 0,11.87858 -2.9987,16.32469 14.81998,0 7.8189,0 -2.88717,-15.72069 0.0744,0 0,-12.48258 4.41129,0 c 1.09961,-8.38125 8.49333,-16.20507 11.01585,-25.21683 l -16.12106,0 c -2.78282,-11.84464 -5.31772,-17.79477 -7.81889,-17.75077 z"
       id="path4024"
       inkscape:connector-curvature="0" />
    <path
       style="fill:none;stroke:#000000;stroke-width:0.75431931;stroke-opacity:1;display:inline"
       d="m 172.61248,427.73163 c 4.6831,-5.76024 9.73287,-8.03121 15.87564,0.0989 0.70116,13.04947 0.54254,26.09894 -0.18353,39.14842 -5.92718,-1.7485 -10.94742,-1.22014 -15.69211,0 -0.7895,-13.08244 -0.63561,-26.16486 0,-39.24729 z"
       id="rect4033"
       inkscape:connector-curvature="0"
       sodipodi:nodetypes="ccccc" />
    <path
       sodipodi:nodetypes="ccccc"
       inkscape:connector-curvature="0"
       id="path4035"
       d="m 175.36272,417.55302 c 4.70715,-12.12769 6.18081,-11.71592 10.9825,0.19772 l 2.05363,9.98086 c -4.28585,-1.89809 -11.25036,-1.79924 -15.53621,0.0989 z"
       style="fill:#00ffff;fill-opacity:1;fill-rule:nonzero;stroke:#000000;stroke-width:0.74406433;stroke-opacity:1;display:inline" />
    <path
       style="fill:#00ffff;fill-opacity:1;fill-rule:nonzero;stroke:none;display:inline"
       d="m 175.36272,417.65189 c 4.70715,-12.1277 6.18081,-11.71593 10.9825,0.19771 l 2.05363,9.98087 c -4.28585,-1.8981 -11.25036,-1.79924 -15.53621,0.0989 z"
       id="path4038"
       inkscape:connector-curvature="0"
       sodipodi:nodetypes="ccccc" />
    <path
       style="fill:none;stroke:#000000;stroke-width:0.69485742px;stroke-linecap:butt;stroke-linejoin:miter;stroke-opacity:1;display:inline"
       d="m 172.7713,466.91901 -3.34623,14.44849 22.16093,0.24387"
       id="path4040"
       inkscape:connector-curvature="0"
       sodipodi:nodetypes="ccc" />
    <path
       style="fill:none;stroke:#000000;stroke-width:0.69485742px;stroke-linecap:butt;stroke-linejoin:miter;stroke-opacity:1;display:inline"
       d="m 188.11347,466.97997 3.15684,14.6314"
       id="path4042"
       inkscape:connector-curvature="0"
       sodipodi:nodetypes="cc" />
    <path
       style="fill:none;stroke:#000000;stroke-width:0.69485742px;stroke-linecap:butt;stroke-linejoin:miter;stroke-opacity:1;display:inline"
       d="m 171.76112,453.32399 c 5.00078,-2.05665 10.35166,-2.94887 16.85746,0"
       id="path4044"
       inkscape:connector-curvature="0"
       sodipodi:nodetypes="cc" />
    <path
       style="fill:none;stroke:#000000;stroke-width:0.69485742px;stroke-linecap:butt;stroke-linejoin:miter;stroke-opacity:1;display:inline"
       d="m 172.51875,440.88732 c 4.79302,-1.70862 9.91489,-2.6378 16.54177,0"
       id="path4046"
       inkscape:connector-curvature="0"
       sodipodi:nodetypes="cc" />
    <path
       sodipodi:nodetypes="cc"
       inkscape:connector-curvature="0"
       id="path4048"
       d="m 172.26621,428.45062 c 4.79301,-1.70861 9.91489,-2.63779 16.54177,0"
       style="fill:none;stroke:#000000;stroke-width:0.69485742px;stroke-linecap:butt;stroke-linejoin:miter;stroke-opacity:1;display:inline" />
    <path
       sodipodi:type="star"
       style="fill:#00ff00;fill-opacity:1;fill-rule:nonzero;stroke:#000000;stroke-width:0.09;stroke-linejoin:round;stroke-miterlimit:4;stroke-opacity:1;stroke-dasharray:none;stroke-dashoffset:0;display:inline"
       id="path4050"
       sodipodi:sides="6"
       sodipodi:cx="274.28571"
       sodipodi:cy="440.21933"
       sodipodi:r1="5.9805059"
       sodipodi:r2="13.785899"
       sodipodi:arg1="1.0363169"
       sodipodi:arg2="1.5599157"
       inkscape:flatsided="false"
       inkscape:rounded="0"
       inkscape:randomized="0"
       d="m 277.33213,445.36576 -2.89643,8.63865 -3.08372,-8.57358 -8.92951,1.81094 5.88308,-6.95737 -6.03307,-6.82771 8.9668,1.61621 2.89643,-8.63865 3.08372,8.57358 8.92951,-1.81094 -5.88308,6.95737 6.03308,6.82771 z"
       transform="matrix(0.3448691,0,0,0.39696545,67.402483,260.5843)" />
    <path
       transform="matrix(0.3448691,0,0,0.39696545,104.77717,260.5843)"
       d="m 277.33213,445.36576 -2.89643,8.63865 -3.08372,-8.57358 -8.92951,1.81094 5.88308,-6.95737 -6.03307,-6.82771 8.9668,1.61621 2.89643,-8.63865 3.08372,8.57358 8.92951,-1.81094 -5.88308,6.95737 6.03308,6.82771 z"
       inkscape:randomized="0"
       inkscape:rounded="0"
       inkscape:flatsided="false"
       sodipodi:arg2="1.5599157"
       sodipodi:arg1="1.0363169"
       sodipodi:r2="13.785899"
       sodipodi:r1="5.9805059"
       sodipodi:cy="440.21933"
       sodipodi:cx="274.28571"
       sodipodi:sides="6"
       id="path4052"
       style="fill:#00ff00;fill-opacity:1;fill-rule:nonzero;stroke:#000000;stroke-width:0.09;stroke-linejoin:round;stroke-miterlimit:4;stroke-opacity:1;stroke-dasharray:none;stroke-dashoffset:0;display:inline"
       sodipodi:type="star" />
  </g>
</svg>
